<svg id="Layer_1" enable-background="new 0 0 512 512" height="512" viewBox="0 0 512 512" width="512" xmlns="http://www.w3.org/2000/svg"><g><g><path clip-rule="evenodd" d="m50.5 70h303v382.784h-303z" fill="#f9f9f9" fill-rule="evenodd"/></g><path clip-rule="evenodd" d="m202 70h151.5v382.784h-151.5z" fill="#e2dff4" fill-rule="evenodd"/><g><path d="m353.5 467.784h-303c-8.284 0-15-6.716-15-15v-382.784c0-8.284 6.716-15 15-15h303c8.284 0 15 6.716 15 15v382.784c0 8.284-6.716 15-15 15zm-288-30h273v-352.784h-273z" fill="#ffbe40"/></g><path d="m353.5 55h-151.5v30h136.5v352.784h-136.5v30h151.5c8.284 0 15-6.716 15-15v-382.784c0-8.284-6.716-15-15-15z" fill="#ff9f40"/><path d="m263.499 203.317c-7.284 0-13.35 5.193-14.711 12.078-1.231-7.1-4.041-13.661-8.058-19.312 2.534 1.724 5.476 2.595 8.421 2.595 3.839 0 7.678-1.464 10.606-4.394 5.858-5.858 5.858-15.355 0-21.213l-7.329-7.329c-5.857-5.858-15.355-5.858-21.213 0-5.182 5.182-5.771 13.207-1.785 19.046-5.677-4.031-12.269-6.846-19.404-8.066 6.922-1.331 12.155-7.412 12.155-14.722 0-8.284-6.716-15-15-15h-10.364c-8.284 0-15 6.716-15 15 0 7.311 5.233 13.392 12.155 14.722-7.134 1.22-13.727 4.035-19.403 8.066 3.986-5.839 3.397-13.865-1.785-19.046-5.857-5.858-15.355-5.858-21.213 0l-7.329 7.329c-5.858 5.858-5.858 15.355 0 21.213 2.929 2.929 6.768 4.394 10.606 4.394 2.946 0 5.887-.87 8.421-2.595-4.017 5.652-6.827 12.213-8.058 19.312-1.36-6.885-7.427-12.078-14.711-12.078-8.284 0-15 6.716-15 15v10.364c0 8.284 6.716 15 15 15 7.272 0 13.332-5.176 14.705-12.044 1.219 7.057 3.998 13.581 7.971 19.211-5.83-3.901-13.787-3.282-18.937 1.866-5.857 5.858-5.856 15.355.001 21.213l7.329 7.329c2.93 2.929 6.768 4.393 10.606 4.393s7.678-1.465 10.607-4.394c5.142-5.142 5.766-13.087 1.881-18.915 5.605 3.959 12.098 6.734 19.121 7.964-6.831 1.402-11.969 7.447-11.969 14.693 0 8.284 6.716 15 15 15h10.364c8.284 0 15-6.716 15-15 0-7.246-5.138-13.291-11.969-14.693 7.022-1.23 13.516-4.004 19.121-7.964-3.885 5.827-3.261 13.772 1.881 18.915 2.93 2.93 6.769 4.394 10.607 4.394s7.678-1.465 10.606-4.393l7.329-7.329c5.857-5.858 5.858-15.355.001-21.213-5.15-5.149-13.107-5.767-18.936-1.867 3.973-5.63 6.752-12.155 7.971-19.211 1.373 6.868 7.434 12.044 14.705 12.044 8.284 0 15-6.716 15-15v-10.364c.004-8.283-6.712-14.999-14.996-14.999z" fill="#00dd7b"/><g><path d="m293.5 352h-182.999c-8.284 0-15-6.716-15-15s6.716-15 15-15h182.999c8.284 0 15 6.716 15 15s-6.716 15-15 15z" fill="#7dd5f4"/></g><path d="m465.716 343.936v-59.08c0-8.284-6.716-15-15-15h-97.432c-8.284 0-15 6.716-15 15v59.08z" fill="#f9f9f9"/><path d="m450.716 269.856h-48.716v74.08h63.716v-59.08c0-8.284-6.716-15-15-15z" fill="#e2dff4"/><path d="m461.5 212h-119c-8.284 0-15 6.716-15 15v60.715c0 8.284 6.716 15 15 15h119c8.284 0 15-6.716 15-15v-60.715c0-8.285-6.716-15-15-15z" fill="#00429d"/><path d="m402 512c35.133 0 63.716-28.583 63.716-63.715v-107.285h-127.432v107.285c0 35.132 28.583 63.715 63.716 63.715z" fill="#ff4d4d"/><g><path d="m257.54 408h-111.079c-8.284 0-15-6.716-15-15s6.716-15 15-15h111.079c8.284 0 15 6.716 15 15s-6.716 15-15 15z" fill="#7dd5f4"/></g><path d="m304.501 29h-60.893c-6.415-17.057-22.803-29-42.107-29-19.305 0-35.694 11.944-42.107 29h-59.894c-8.284 0-15 6.716-15 15v12c0 24.813 20.187 45 45 45h145.001c24.813 0 45-20.187 45-45v-12c0-8.284-6.716-15-15-15z" fill="#00429d"/><path d="m263.499 203.317c-7.284 0-13.35 5.193-14.711 12.078-1.231-7.1-4.041-13.661-8.058-19.312 2.534 1.724 5.476 2.595 8.421 2.595 3.839 0 7.678-1.464 10.606-4.394 5.858-5.858 5.858-15.355 0-21.213l-7.329-7.329c-5.857-5.858-15.355-5.858-21.213 0-5.182 5.182-5.771 13.207-1.785 19.046-5.677-4.031-12.269-6.846-19.404-8.066 6.922-1.331 12.155-7.412 12.155-14.722 0-8.284-6.716-15-15-15h-5.181v152.999h5.181c8.284 0 15-6.716 15-15 0-7.246-5.138-13.291-11.969-14.693 7.022-1.23 13.516-4.004 19.121-7.964-3.885 5.827-3.261 13.772 1.881 18.915 2.93 2.93 6.769 4.394 10.607 4.394s7.678-1.465 10.606-4.393l7.329-7.329c5.857-5.858 5.858-15.355.001-21.213-5.15-5.149-13.107-5.767-18.936-1.867 3.973-5.63 6.752-12.155 7.971-19.211 1.373 6.868 7.434 12.044 14.705 12.044 8.284 0 15-6.716 15-15v-10.364c.002-8.285-6.714-15.001-14.998-15.001z" fill="#24b383"/><path d="m293.5 322h-91.5v30h91.5c8.284 0 15-6.716 15-15s-6.716-15-15-15z" fill="#4793ff"/><path d="m257.54 378h-55.54v30h55.54c8.284 0 15-6.716 15-15s-6.716-15-15-15z" fill="#4793ff"/><path d="m304.501 29h-60.893c-6.359-16.909-22.521-28.793-41.608-28.997v100.997h72.5c24.813 0 45-20.187 45-45v-12c.001-8.284-6.715-15-14.999-15z" fill="#00347b"/><path d="m461.5 212h-59.5v90.715h59.5c8.284 0 15-6.716 15-15v-60.715c0-8.285-6.716-15-15-15z" fill="#00347b"/><path d="m402 341v171c35.133 0 63.716-28.583 63.716-63.715v-107.285z" fill="#cc295f"/></g></svg>